<svg width="64" height="34" viewBox="0 0 64 34" fill="none" xmlns="http://www.w3.org/2000/svg">
<path d="M2.02373 29.4551V19.6551H2.87773L9.63974 28.1671H9.19174V19.6551H10.2137V29.4551H9.35973L2.61173 20.9431H3.05973V29.4551H2.02373ZM17.8084 29.4551V27.8311L17.7664 27.5651V24.8491C17.7664 24.2237 17.5891 23.7431 17.2344 23.4071C16.8891 23.0711 16.3711 22.9031 15.6804 22.9031C15.2044 22.9031 14.7517 22.9824 14.3224 23.1411C13.8931 23.2997 13.5291 23.5097 13.2304 23.7711L12.7824 23.0291C13.1557 22.7117 13.6037 22.4691 14.1264 22.3011C14.6491 22.1237 15.1997 22.0351 15.7784 22.0351C16.7304 22.0351 17.4631 22.2731 17.9764 22.7491C18.4991 23.2157 18.7604 23.9297 18.7604 24.8911V29.4551H17.8084ZM15.2744 29.5251C14.7237 29.5251 14.2431 29.4364 13.8324 29.2591C13.4311 29.0724 13.1231 28.8204 12.9084 28.5031C12.6937 28.1764 12.5864 27.8031 12.5864 27.3831C12.5864 27.0004 12.6751 26.6551 12.8524 26.3471C13.0391 26.0297 13.3377 25.7777 13.7484 25.5911C14.1684 25.3951 14.7284 25.2971 15.4284 25.2971H17.9624V26.0391H15.4564C14.7471 26.0391 14.2524 26.1651 13.9724 26.4171C13.7017 26.6691 13.5664 26.9817 13.5664 27.3551C13.5664 27.7751 13.7297 28.1111 14.0564 28.3631C14.3831 28.6151 14.8404 28.7411 15.4284 28.7411C15.9884 28.7411 16.4691 28.6151 16.8704 28.3631C17.2811 28.1017 17.5797 27.7284 17.7664 27.2431L17.9904 27.9291C17.8037 28.4144 17.4771 28.8017 17.0104 29.0911C16.5531 29.3804 15.9744 29.5251 15.2744 29.5251ZM30.6442 22.0351C31.2416 22.0351 31.7596 22.1517 32.1982 22.3851C32.6462 22.6091 32.9916 22.9544 33.2342 23.4211C33.4862 23.8877 33.6122 24.4757 33.6122 25.1851V29.4551H32.6182V25.2831C32.6182 24.5084 32.4316 23.9251 32.0582 23.5331C31.6942 23.1317 31.1762 22.9311 30.5042 22.9311C30.0002 22.9311 29.5616 23.0384 29.1882 23.2531C28.8242 23.4584 28.5396 23.7617 28.3342 24.1631C28.1382 24.5551 28.0402 25.0311 28.0402 25.5911V29.4551H27.0462V25.2831C27.0462 24.5084 26.8596 23.9251 26.4862 23.5331C26.1129 23.1317 25.5902 22.9311 24.9182 22.9311C24.4236 22.9311 23.9896 23.0384 23.6162 23.2531C23.2429 23.4584 22.9536 23.7617 22.7482 24.1631C22.5522 24.5551 22.4542 25.0311 22.4542 25.5911V29.4551H21.4602V22.1051H22.4122V24.0931L22.2582 23.7431C22.4822 23.2111 22.8416 22.7957 23.3362 22.4971C23.8402 22.1891 24.4329 22.0351 25.1142 22.0351C25.8329 22.0351 26.4442 22.2171 26.9482 22.5811C27.4522 22.9357 27.7789 23.4724 27.9282 24.1911L27.5362 24.0371C27.7509 23.4397 28.1289 22.9591 28.6702 22.5951C29.2209 22.2217 29.8789 22.0351 30.6442 22.0351Z" fill="#828282"/>
<path d="M45.4699 16.8551H47.8099V29.4551H45.4699V16.8551ZM38.9539 29.4551H36.6139V16.8551H38.9539V29.4551ZM45.6499 24.0551H38.7559V22.0571H45.6499V24.0551ZM51.1861 29.4551V16.8551H56.3701C57.4861 16.8551 58.4401 17.0351 59.2321 17.3951C60.0361 17.7551 60.6541 18.2711 61.0861 18.9431C61.5181 19.6151 61.7341 20.4131 61.7341 21.3371C61.7341 22.2611 61.5181 23.0591 61.0861 23.7311C60.6541 24.3911 60.0361 24.9011 59.2321 25.2611C58.4401 25.6091 57.4861 25.7831 56.3701 25.7831H52.4821L53.5261 24.7211V29.4551H51.1861ZM59.4301 29.4551L56.2441 24.8831H58.7461L61.9501 29.4551H59.4301ZM53.5261 24.9731L52.4821 23.8571H56.2621C57.2941 23.8571 58.0681 23.6351 58.5841 23.1911C59.1121 22.7471 59.3761 22.1291 59.3761 21.3371C59.3761 20.5331 59.1121 19.9151 58.5841 19.4831C58.0681 19.0511 57.2941 18.8351 56.2621 18.8351H52.4821L53.5261 17.6831V24.9731Z" fill="#191B1D"/>
<path d="M11.9287 0L11.9287 10.0002L2.00008 10.0002L2.00008 1.31136e-06L11.9287 0Z" fill="#5615BF"/>
<path d="M14.8252 5.25391L14.8252 0.253827L19.3382 0.253827L19.3382 5.25391L14.8252 5.25391Z" fill="#A369DE"/>
</svg>
