<svg width="19" height="20" viewBox="0 0 19 20" fill="none" xmlns="http://www.w3.org/2000/svg">
<g clip-path="url(#clip0_16_5289)">
<path d="M18.8147 10.2185C18.8147 9.57267 18.7623 8.9234 18.6506 8.28809H9.68994V11.9464H14.8213C14.6084 13.1262 13.9242 14.17 12.9224 14.8332V17.2069H15.9837C17.7815 15.5523 18.8147 13.1088 18.8147 10.2185Z" fill="#4285F4"/>
<path d="M9.69012 19.5009C12.2523 19.5009 14.4131 18.6596 15.9874 17.2075L12.926 14.8338C12.0743 15.4132 10.9747 15.7414 9.69361 15.7414C7.2152 15.7414 5.11378 14.0693 4.35979 11.8213H1.20068V14.2683C2.8134 17.4763 6.09817 19.5009 9.69012 19.5009Z" fill="#34A853"/>
<path d="M4.35612 11.8207C3.95818 10.6408 3.95818 9.36319 4.35612 8.18332V5.73633H1.20051C-0.146913 8.42069 -0.146913 11.5833 1.20051 14.2677L4.35612 11.8207Z" fill="#FBBC04"/>
<path d="M9.69012 4.26015C11.0445 4.2392 12.3535 4.74885 13.3344 5.68436L16.0467 2.97207C14.3293 1.35936 12.0498 0.472714 9.69012 0.50064C6.09817 0.50064 2.8134 2.52526 1.20068 5.73672L4.3563 8.18372C5.1068 5.9322 7.21171 4.26015 9.69012 4.26015Z" fill="#EA4335"/>
</g>
<defs>
<clipPath id="clip0_16_5289">
<rect width="19" height="19" fill="white" transform="translate(0 0.5)"/>
</clipPath>
</defs>
</svg>
